<?xml version="1.0" encoding="utf-8"?>
<!-- Generator: Adobe Illustrator 26.1.0, SVG Export Plug-In . SVG Version: 6.00 Build 0)  -->
<svg version="1.1" id="Camada_1" xmlns="http://www.w3.org/2000/svg" xmlns:xlink="http://www.w3.org/1999/xlink" x="0px" y="0px"
	 viewBox="0 0 1342.3 835.7" style="enable-background:new 0 0 1342.3 835.7;" xml:space="preserve">
<style type="text/css">
	.st0{fill:#061EFF;}
	.st1{fill:#00B7FF;}
</style>
<g>
	<path class="st0" d="M408.4,761l11.2-21.6c10.5,7.1,27.1,12.1,42.1,12.1c18.2,0,25.5-5,25.5-13.4c0-23.2-75.2-1.4-75.2-49.9
		c0-23,20.7-38,53.5-38c16.2,0,34.6,3.9,45.6,10.5l-10.9,21.6c-11.4-6.8-23.2-9.1-34.6-9.1c-17.5,0-25.7,5.7-25.7,13.7
		c0,24.6,75.2,2.7,75.2,50.3c0,22.8-21,37.6-54.9,37.6C439.6,774.7,419.3,768.8,408.4,761"/>
	<path class="st0" d="M656.9,721.4h-95.5c3.4,17.8,18.2,29.2,39.4,29.2c13.7,0,24.4-4.3,33-13.2l15.3,17.5c-10.9,13-28,19.8-49,19.8
		c-40.8,0-67.2-26.2-67.2-62.4c0-36.2,26.7-62.2,62.9-62.2c35.5,0,61.5,24.8,61.5,62.9C657.4,715.2,657.2,718.6,656.9,721.4
		 M561.3,702.5h69c-2.3-17.5-15.7-29.6-34.4-29.6C577.4,672.9,564,684.7,561.3,702.5"/>
	<path class="st0" d="M781.6,651.4h27.1v103.2c0,44.2-23,64.2-65.6,64.2c-22.8,0-45.3-5.9-59.2-17.3l12.8-21.4
		c10.7,8.9,28,14.6,44.9,14.6c26.9,0,38.7-12.3,38.7-36.9v-6.4c-10,10.9-24.4,16.2-40.8,16.2c-34.8,0-61.5-23.7-61.5-59
		s26.7-58.5,61.5-58.5c17.1,0,32.1,5.5,42.1,17.5L781.6,651.4L781.6,651.4z M780.6,708.6c0-20.5-15.5-34.4-36.9-34.4
		c-21.6,0-37.1,13.9-37.1,34.4c0,20.7,15.5,34.9,37.1,34.9C765.2,743.5,780.6,729.4,780.6,708.6"/>
	<path class="st0" d="M840.1,715.2v-63.8h28.5v63.8c0,23,12.8,35.1,31,35.1c18.2,0,31-11.6,31-35.1v-63.8H959v63.8
		c0,40.8-26.2,59.5-59.5,59.5C866.3,774.7,840.1,755.1,840.1,715.2"/>
	<path class="st0" d="M1017.3,669.2c8.2-12.8,23-19.1,43.1-19.1v27.1c-2.3-0.5-4.3-0.7-6.4-0.7c-21.6,0-35.3,12.8-35.3,37.6v59
		h-28.5V651.4h27.1L1017.3,669.2L1017.3,669.2z"/>
	<path class="st0" d="M1073.4,712.3c0-36.5,27.3-62.2,64.7-62.2c37.8,0,64.9,25.7,64.9,62.2s-27.1,62.4-64.9,62.4
		C1100.7,774.7,1073.4,748.7,1073.4,712.3 M1174.3,712.3c0-23.2-15.5-38-36.2-38c-20.5,0-36,14.8-36,38c0,23.2,15.5,38,36,38
		C1158.8,750.3,1174.3,735.5,1174.3,712.3"/>
	<path class="st0" d="M1219.2,761l11.2-21.6c10.5,7.1,27.1,12.1,42.1,12.1c18.2,0,25.5-5,25.5-13.4c0-23.2-75.2-1.4-75.2-49.9
		c0-23,20.7-38,53.5-38c16.2,0,34.6,3.9,45.6,10.5l-10.9,21.6c-11.4-6.8-23.2-9.1-34.6-9.1c-17.5,0-25.7,5.7-25.7,13.7
		c0,24.6,75.2,2.7,75.2,50.3c0,22.8-21,37.6-54.9,37.6C1250.4,774.7,1230.1,768.8,1219.2,761"/>
	<path class="st0" d="M1053.9,126c-13,0-21.2,8.2-21.2,21.2v214.3c0,57.9-27.7,81.5-68.5,81.5c-42.4,0-69.3-22.8-69.3-81.5V147.2
		c0-13-7.3-21.2-21.2-21.2h-72.5c-13,0-21.2,8.2-21.2,21.2v219.2c0,119,80.7,174.4,183.4,174.4c105.9,0,184.2-58.7,184.2-174.4
		V147.2c0-13-7.3-21.2-21.2-21.2H1053.9z M531.5,447.1L719,221.4c6.5-8.1,9.8-15.5,9.8-26.1v-48.1c0-13-7.3-21.2-21.2-21.2H432.1
		c-13,0-21.2,8.2-21.2,21.2v44c0,13,8.2,21.2,21.2,21.2h170.3L415,438.2c-6.5,8.2-9.8,15.5-9.8,26.1v48.1c0,13,7.3,21.2,21.2,21.2
		h288.5c13,0,21.2-8.2,21.2-21.2v-44c0-13-7.3-21.2-21.2-21.2H531.5z M190.9,118.7c-85.6,0-149.1,44.8-162.2,119.8
		c-2.4,13.9,5.7,22,19.6,22h55.4c12.2,0,19.6-6.5,22.8-18.7c7.3-21.2,24.5-35.9,59.5-35.9c41.6,0,59.5,26.9,59.5,66.8v239.6
		c0,13,8.2,21.2,21.2,21.2h67.6c13,0,21.2-8.2,21.2-21.2V271.1C355.5,188,296.8,118.7,190.9,118.7 M1230.7,16.8
		c-13,0-21.2,7.3-21.2,21.2v474.3c0,13,8.2,21.2,21.2,21.2h72.5c13,0,21.2-7.3,21.2-21.2V38c0-13-7.3-21.2-21.2-21.2L1230.7,16.8
		L1230.7,16.8z"/>
	<path class="st1" d="M138.7,540c18.7,0,34.2-2.4,48.9-8.2c14.7-5.7,21.2-14.7,24.5-29.3l6.5-28.5c2.5-9.8-2.4-13.8-12.2-11.4
		c-9.8,1.6-21.2,2.4-31.8,2.4c-39.1,0-55.4-18.7-55.4-43.2c0-48.9,72.5-88,282-114.1c12.2-1.6,11.4-15.5,0-15.5
		c-251.8,1.6-384.6,52.1-384.6,145.1C16.5,496,63.8,540,138.7,540"/>
</g>
</svg>
